<svg width="3281" height="322.847" xmlns="http://www.w3.org/2000/svg">
 <defs>
  <style>.a{fill:#1a1a1f;}.b{fill:#26262b;}</style>
  <filter height="200%" width="200%" y="-50%" x="-50%" id="svg_1_blur">
   <feGaussianBlur stdDeviation="0" in="SourceGraphic"/>
  </filter>
 </defs>
 <g>
  <title>background</title>
  <rect fill="none" id="canvas_background" height="402" width="582" y="-1" x="-1"/>
 </g>
 <g>
  <title>Layer 1</title>
  <g filter="url(#svg_1_blur)" opacity="0.86" transform="rotate(-180 1563.5,142.4137878417969) " id="svg_1">
   <rect stroke-dasharray="5,2,2,2" stroke-width="74" id="svg_2" x="-77" y="160.97456" height="79" width="3281" class="a"/>
   <path stroke-dasharray="5,2,2,2" stroke-width="74" id="svg_3" d="m2110.352043,181.65356l-1093.889,0l0,-149.042a80.9,80.9 0 0 1 148.123,-5.91a38.645,38.645 0 0 1 41.277,5.925a38.721,38.721 0 0 1 62.288,-18.43a39.1,39.1 0 0 1 6.054,6.5a74.829,74.829 0 0 1 11.191,-8.679a77.317,77.317 0 0 1 12.888,-6.562a79.372,79.372 0 0 1 14.273,-4.151a81.919,81.919 0 0 1 34.039,0.715a78.537,78.537 0 0 1 16.967,6.128a75.7,75.7 0 0 1 14.667,9.559a71.912,71.912 0 0 1 11.785,12.449a38.757,38.757 0 0 1 58.914,19.73a80.834,80.834 0 0 1 15.852,-5.158a81.718,81.718 0 0 1 17.094,-1.8a80.753,80.753 0 0 1 30.469,5.911a42.123,42.123 0 0 1 14.549,-12.429a41.962,41.962 0 0 1 43.07,2.783a80.891,80.891 0 0 1 150.411,-12.627a38.641,38.641 0 0 1 41.277,5.924a38.723,38.723 0 0 1 62.289,-18.431a39.05,39.05 0 0 1 6.054,6.5a74.789,74.789 0 0 1 11.19,-8.68a77.3,77.3 0 0 1 12.888,-6.562a79.45,79.45 0 0 1 14.273,-4.151a81.944,81.944 0 0 1 34.037,0.715a78.6,78.6 0 0 1 16.97,6.13a75.758,75.758 0 0 1 14.668,9.564a71.9,71.9 0 0 1 11.785,12.449a38.733,38.733 0 0 1 57.169,15.341a81.127,81.127 0 0 1 61.589,9.11a41.994,41.994 0 0 1 45.792,-22.016l0,149.194l-0.003,0.001z" class="a"/>
   <path stroke-dasharray="5,2,2,2" stroke-width="74" id="svg_4" d="m1017.081017,181.65356l-1093.889,0l0,-149.042a80.9,80.9 0 0 1 148.123,-5.91a38.645,38.645 0 0 1 41.277,5.925a38.721,38.721 0 0 1 62.288,-18.43a39.1,39.1 0 0 1 6.054,6.5a74.829,74.829 0 0 1 11.191,-8.679a77.317,77.317 0 0 1 12.888,-6.562a79.372,79.372 0 0 1 14.273,-4.151a81.919,81.919 0 0 1 34.039,0.715a78.537,78.537 0 0 1 16.967,6.128a75.7,75.7 0 0 1 14.667,9.559a71.912,71.912 0 0 1 11.785,12.449a38.757,38.757 0 0 1 58.914,19.73a80.834,80.834 0 0 1 15.852,-5.158a81.718,81.718 0 0 1 17.094,-1.8a80.753,80.753 0 0 1 30.469,5.911a42.123,42.123 0 0 1 14.549,-12.429a41.962,41.962 0 0 1 43.07,2.783a80.891,80.891 0 0 1 150.411,-12.627a38.641,38.641 0 0 1 41.277,5.924a38.723,38.723 0 0 1 62.289,-18.431a39.05,39.05 0 0 1 6.054,6.5a74.789,74.789 0 0 1 11.19,-8.68a77.3,77.3 0 0 1 12.888,-6.562a79.45,79.45 0 0 1 14.273,-4.151a81.944,81.944 0 0 1 34.037,0.715a78.6,78.6 0 0 1 16.97,6.13a75.758,75.758 0 0 1 14.668,9.564a71.9,71.9 0 0 1 11.785,12.449a38.733,38.733 0 0 1 57.169,15.341a81.127,81.127 0 0 1 61.589,9.11a41.994,41.994 0 0 1 45.792,-22.016l0,149.194l-0.003,0.001z" class="a"/>
   <path stroke-dasharray="5,2,2,2" stroke-width="74" id="svg_5" d="m3203.624046,181.65356l-1093.889,0l0,-149.042a80.9,80.9 0 0 1 148.123,-5.91a38.645,38.645 0 0 1 41.277,5.925a38.721,38.721 0 0 1 62.288,-18.43a39.1,39.1 0 0 1 6.054,6.5a74.829,74.829 0 0 1 11.191,-8.679a77.317,77.317 0 0 1 12.888,-6.562a79.372,79.372 0 0 1 14.273,-4.151a81.919,81.919 0 0 1 34.039,0.715a78.537,78.537 0 0 1 16.967,6.128a75.7,75.7 0 0 1 14.667,9.559a71.912,71.912 0 0 1 11.785,12.449a38.757,38.757 0 0 1 58.914,19.73a80.834,80.834 0 0 1 15.852,-5.158a81.718,81.718 0 0 1 17.094,-1.8a80.753,80.753 0 0 1 30.469,5.911a42.123,42.123 0 0 1 14.549,-12.429a41.962,41.962 0 0 1 43.07,2.783a80.891,80.891 0 0 1 150.411,-12.627a38.641,38.641 0 0 1 41.277,5.924a38.723,38.723 0 0 1 62.289,-18.431a39.05,39.05 0 0 1 6.054,6.5a74.789,74.789 0 0 1 11.19,-8.68a77.3,77.3 0 0 1 12.888,-6.562a79.45,79.45 0 0 1 14.273,-4.151a81.944,81.944 0 0 1 34.037,0.715a78.6,78.6 0 0 1 16.97,6.13a75.758,75.758 0 0 1 14.668,9.564a71.9,71.9 0 0 1 11.785,12.449a38.733,38.733 0 0 1 57.169,15.341a81.127,81.127 0 0 1 61.589,9.11a41.994,41.994 0 0 1 45.792,-22.016l0,149.194l-0.003,0.001z" class="a"/>
   <path stroke-dasharray="5,2,2,2" stroke-width="74" id="svg_6" d="m2110.352043,303.821574l-1093.889,0l0,-84.912a45.037,45.037 0 0 1 8.454,-0.8a43.931,43.931 0 0 1 22.175,5.937a40.5,40.5 0 0 1 15.163,15.467a83.781,83.781 0 0 1 19.732,-7.98a87.212,87.212 0 0 1 41.854,-0.553a37.214,37.214 0 0 1 14.04,-15.039a40.948,40.948 0 0 1 43.13,0.682a69.445,69.445 0 0 1 11.785,-11.651a76.478,76.478 0 0 1 14.667,-8.946a82.143,82.143 0 0 1 16.971,-5.737a87.418,87.418 0 0 1 34.037,-0.668a83.574,83.574 0 0 1 14.273,3.885a79.41,79.41 0 0 1 12.888,6.141a74.24,74.24 0 0 1 11.19,8.122a37.724,37.724 0 0 1 6.054,-6.082a39.185,39.185 0 0 1 7.395,-4.654a40.207,40.207 0 0 1 8.47,-2.975a41.531,41.531 0 0 1 21.822,0.9a39.5,39.5 0 0 1 10.828,5.4a37.627,37.627 0 0 1 8.43,8.209a35.165,35.165 0 0 1 5.342,10.369a39.285,39.285 0 0 1 11.551,-6.444a41.215,41.215 0 0 1 29.726,0.9a75.634,75.634 0 0 1 12.4,-17.321a80.107,80.107 0 0 1 16.9,-13.482a83.167,83.167 0 0 1 20.447,-8.747a86.594,86.594 0 0 1 49.3,0.971a82.414,82.414 0 0 1 22.664,11.35a78.379,78.379 0 0 1 17.6,17.253a73.287,73.287 0 0 1 11.089,21.795a43.692,43.692 0 0 1 23.856,-6.967a44.782,44.782 0 0 1 10.047,1.135a43.534,43.534 0 0 1 9.169,3.223a42.321,42.321 0 0 1 8,5.043a40.641,40.641 0 0 1 6.547,6.59a85.61,85.61 0 0 1 30.469,-5.531a87.1,87.1 0 0 1 17.094,1.688a84.787,84.787 0 0 1 15.851,4.827a35.384,35.384 0 0 1 5.48,-10.009a37.762,37.762 0 0 1 8.39,-7.9a39.557,39.557 0 0 1 10.67,-5.184a41.086,41.086 0 0 1 12.284,-1.862a40.454,40.454 0 0 1 22.1,6.487a69.372,69.372 0 0 1 11.785,-11.65a76.459,76.459 0 0 1 14.667,-8.945a82.179,82.179 0 0 1 16.97,-5.736a87.418,87.418 0 0 1 34.037,-0.668a83.581,83.581 0 0 1 14.273,3.885a79.39,79.39 0 0 1 12.888,6.14a74.3,74.3 0 0 1 11.19,8.122a37.671,37.671 0 0 1 6.056,-6.083a39.149,39.149 0 0 1 7.395,-4.653a40.16,40.16 0 0 1 8.469,-2.975a41.53,41.53 0 0 1 21.821,0.9a39.539,39.539 0 0 1 10.829,5.4a37.636,37.636 0 0 1 8.429,8.209a35.168,35.168 0 0 1 5.344,10.374a39.293,39.293 0 0 1 11.551,-6.444a41.218,41.218 0 0 1 29.726,0.9a75.657,75.657 0 0 1 12.4,-17.321a80.083,80.083 0 0 1 16.9,-13.482a83.192,83.192 0 0 1 20.447,-8.748a86.654,86.654 0 0 1 47.619,0.449a82.816,82.816 0 0 1 21.537,9.956a79.3,79.3 0 0 1 17.311,15.246a74.469,74.469 0 0 1 11.909,19.431l0,84.769l0.002,-0.006z" class="b"/>
   <path stroke-dasharray="5,2,2,2" stroke-width="74" id="svg_7" d="m1017.08004,303.821574l-1093.889,0l0,-84.912a45.037,45.037 0 0 1 8.454,-0.8a43.931,43.931 0 0 1 22.175,5.937a40.5,40.5 0 0 1 15.163,15.467a83.781,83.781 0 0 1 19.732,-7.98a87.212,87.212 0 0 1 41.854,-0.553a37.214,37.214 0 0 1 14.04,-15.039a40.948,40.948 0 0 1 43.13,0.682a69.445,69.445 0 0 1 11.785,-11.651a76.478,76.478 0 0 1 14.667,-8.946a82.143,82.143 0 0 1 16.971,-5.737a87.418,87.418 0 0 1 34.037,-0.668a83.574,83.574 0 0 1 14.273,3.885a79.41,79.41 0 0 1 12.888,6.141a74.24,74.24 0 0 1 11.19,8.122a37.724,37.724 0 0 1 6.054,-6.082a39.185,39.185 0 0 1 7.395,-4.654a40.207,40.207 0 0 1 8.47,-2.975a41.531,41.531 0 0 1 21.822,0.9a39.5,39.5 0 0 1 10.828,5.4a37.627,37.627 0 0 1 8.43,8.209a35.165,35.165 0 0 1 5.342,10.369a39.285,39.285 0 0 1 11.551,-6.444a41.215,41.215 0 0 1 29.726,0.9a75.634,75.634 0 0 1 12.4,-17.321a80.107,80.107 0 0 1 16.9,-13.482a83.167,83.167 0 0 1 20.447,-8.747a86.594,86.594 0 0 1 49.3,0.971a82.414,82.414 0 0 1 22.664,11.35a78.379,78.379 0 0 1 17.6,17.253a73.287,73.287 0 0 1 11.089,21.795a43.692,43.692 0 0 1 23.856,-6.967a44.782,44.782 0 0 1 10.047,1.135a43.534,43.534 0 0 1 9.169,3.223a42.321,42.321 0 0 1 8,5.043a40.641,40.641 0 0 1 6.547,6.59a85.61,85.61 0 0 1 30.469,-5.531a87.1,87.1 0 0 1 17.094,1.688a84.787,84.787 0 0 1 15.851,4.827a35.384,35.384 0 0 1 5.48,-10.009a37.762,37.762 0 0 1 8.39,-7.9a39.557,39.557 0 0 1 10.67,-5.184a41.086,41.086 0 0 1 12.284,-1.862a40.454,40.454 0 0 1 22.1,6.487a69.372,69.372 0 0 1 11.785,-11.65a76.459,76.459 0 0 1 14.667,-8.945a82.179,82.179 0 0 1 16.97,-5.736a87.418,87.418 0 0 1 34.037,-0.668a83.581,83.581 0 0 1 14.273,3.885a79.39,79.39 0 0 1 12.888,6.14a74.3,74.3 0 0 1 11.19,8.122a37.671,37.671 0 0 1 6.056,-6.083a39.149,39.149 0 0 1 7.395,-4.653a40.16,40.16 0 0 1 8.469,-2.975a41.53,41.53 0 0 1 21.821,0.9a39.539,39.539 0 0 1 10.829,5.4a37.636,37.636 0 0 1 8.429,8.209a35.168,35.168 0 0 1 5.344,10.374a39.293,39.293 0 0 1 11.551,-6.444a41.218,41.218 0 0 1 29.726,0.9a75.657,75.657 0 0 1 12.4,-17.321a80.083,80.083 0 0 1 16.9,-13.482a83.192,83.192 0 0 1 20.447,-8.748a86.654,86.654 0 0 1 47.619,0.449a82.816,82.816 0 0 1 21.537,9.956a79.3,79.3 0 0 1 17.311,15.246a74.469,74.469 0 0 1 11.909,19.431l0,84.769l0.002,-0.006z" class="b"/>
   <path stroke-dasharray="5,2,2,2" stroke-width="74" id="svg_8" d="m3203.62307,303.821574l-1093.889,0l0,-84.912a45.037,45.037 0 0 1 8.454,-0.8a43.931,43.931 0 0 1 22.175,5.937a40.5,40.5 0 0 1 15.163,15.467a83.781,83.781 0 0 1 19.732,-7.98a87.212,87.212 0 0 1 41.854,-0.553a37.214,37.214 0 0 1 14.04,-15.039a40.948,40.948 0 0 1 43.13,0.682a69.445,69.445 0 0 1 11.785,-11.651a76.478,76.478 0 0 1 14.667,-8.946a82.143,82.143 0 0 1 16.971,-5.737a87.418,87.418 0 0 1 34.037,-0.668a83.574,83.574 0 0 1 14.273,3.885a79.41,79.41 0 0 1 12.888,6.141a74.24,74.24 0 0 1 11.19,8.122a37.724,37.724 0 0 1 6.054,-6.082a39.185,39.185 0 0 1 7.395,-4.654a40.207,40.207 0 0 1 8.47,-2.975a41.531,41.531 0 0 1 21.822,0.9a39.5,39.5 0 0 1 10.828,5.4a37.627,37.627 0 0 1 8.43,8.209a35.165,35.165 0 0 1 5.342,10.369a39.285,39.285 0 0 1 11.551,-6.444a41.215,41.215 0 0 1 29.726,0.9a75.634,75.634 0 0 1 12.4,-17.321a80.107,80.107 0 0 1 16.9,-13.482a83.167,83.167 0 0 1 20.447,-8.747a86.594,86.594 0 0 1 49.3,0.971a82.414,82.414 0 0 1 22.664,11.35a78.379,78.379 0 0 1 17.6,17.253a73.287,73.287 0 0 1 11.089,21.795a43.692,43.692 0 0 1 23.856,-6.967a44.782,44.782 0 0 1 10.047,1.135a43.534,43.534 0 0 1 9.169,3.223a42.321,42.321 0 0 1 8,5.043a40.641,40.641 0 0 1 6.547,6.59a85.61,85.61 0 0 1 30.469,-5.531a87.1,87.1 0 0 1 17.094,1.688a84.787,84.787 0 0 1 15.851,4.827a35.384,35.384 0 0 1 5.48,-10.009a37.762,37.762 0 0 1 8.39,-7.9a39.557,39.557 0 0 1 10.67,-5.184a41.086,41.086 0 0 1 12.284,-1.862a40.454,40.454 0 0 1 22.1,6.487a69.372,69.372 0 0 1 11.785,-11.65a76.459,76.459 0 0 1 14.667,-8.945a82.179,82.179 0 0 1 16.97,-5.736a87.418,87.418 0 0 1 34.037,-0.668a83.581,83.581 0 0 1 14.273,3.885a79.39,79.39 0 0 1 12.888,6.14a74.3,74.3 0 0 1 11.19,8.122a37.671,37.671 0 0 1 6.056,-6.083a39.149,39.149 0 0 1 7.395,-4.653a40.16,40.16 0 0 1 8.469,-2.975a41.53,41.53 0 0 1 21.821,0.9a39.539,39.539 0 0 1 10.829,5.4a37.636,37.636 0 0 1 8.429,8.209a35.168,35.168 0 0 1 5.344,10.374a39.293,39.293 0 0 1 11.551,-6.444a41.218,41.218 0 0 1 29.726,0.9a75.657,75.657 0 0 1 12.4,-17.321a80.083,80.083 0 0 1 16.9,-13.482a83.192,83.192 0 0 1 20.447,-8.748a86.654,86.654 0 0 1 47.619,0.449a82.816,82.816 0 0 1 21.537,9.956a79.3,79.3 0 0 1 17.311,15.246a74.469,74.469 0 0 1 11.909,19.431l0,84.769l0.002,-0.006z" class="b"/>
  </g>
 </g>
</svg>